<?xml version='1.0' encoding='iso-8859-1'?>
<svg version="1.1" xmlns="http://www.w3.org/2000/svg" viewBox="0 0 246.5 246.5" xmlns:xlink="http://www.w3.org/1999/xlink" enable-background="new 0 0 246.5 246.5">
  <g>
    <path d="m246.5,123.25c0-15.195-10.25-27.982-24.25-31.818v-22.182c0-6.6-4.906-9.984-11.028-7.52l-43.805,17.644 17.644-43.741c2.464-6.123-0.878-11.133-7.478-11.133h-22.11c-3.751-14.106-16.604-24.5-31.89-24.5s-28.139,10.394-31.89,24.5h-22.11c-6.6,0-9.983,5.01-7.52,11.133l17.603,43.741-44.055-17.644c-6.122-2.465-11.361,0.92-11.361,7.52v22.182c-14,3.836-24.25,16.623-24.25,31.818s10.25,27.982 24.25,31.818v22.182c0,6.6 5.239,9.984 11.361,7.52l44.108-17.698-17.697,44.171c-2.464,6.123 0.962,11.258 7.561,11.258h22.253c3.919,13.85 16.643,24 31.747,24s27.828-10.15 31.747-24h22.253c6.6,0 9.983-5.135 7.52-11.258l-17.738-44.171 43.858,17.698c6.122,2.465 11.028-0.92 11.028-7.52v-22.182c13.999-3.836 24.249-16.623 24.249-31.818zm-113.368,33.33c0-14.361-9.576-28.276-9.576-28.276s-9.573,13.915-9.573,28.276c-24.187,0-28.973-23.936-19.399-38.297 5.159-7.737 15.807-16.482 15.538-31.199-0.063-3.45 3.586-5.718 6.668-4.166 3.9,1.964 8.449,5.036 11.44,9.569 10.27,15.563 5.097,30.758 5.097,30.758s6.531-3.72 12.052-10.302c2.154-2.567 6.249-2.033 7.679,0.998 6.794,14.41 8.288,42.639-19.926,42.639z" fill="#FAFAFA"/>
  </g>
</svg>
