<svg id="Layer_1" enable-background="new 0 0 512.063 512.063" height="512" viewBox="0 0 512.063 512.063" width="512" xmlns="http://www.w3.org/2000/svg">
    <path d="m285.971 236.113h48.26v29.87h-48.26c-8.29 0-15 6.72-15 15v48.27h-29.87v-48.27c0-8.28-6.71-15-15-15h-48.27v-29.87h48.27c8.29 0 15-6.71 15-15v-48.27h29.87v48.27c0 8.289 6.71 15 15 15z"  fill="#FAFAFA"/>
    <path d="m473.011 138.883-.01-.49c-.24-12.76-.47-24.82-.47-36.42 0-17.58-14.3-31.87-31.87-31.87-68 0-119.61-19.39-162.42-61.02-12.46-12.11-31.98-12.11-44.44 0-42.8 41.63-94.41 61.02-162.4 61.02-17.57 0-31.87 14.29-31.87 31.87 0 11.84-.23 24.02-.48 36.92-1.15 60.2-2.58 135.12 22.56 203.13 13.83 37.4 34.76 69.89 62.22 96.59 31.28 30.41 72.24 54.53 121.75 71.69 3.37 1.17 6.88 1.76 10.44 1.76s7.08-.59 10.44-1.76c49.51-17.16 90.48-41.28 121.76-71.69 27.46-26.7 48.39-59.2 62.22-96.59 25.15-68.02 23.72-142.94 22.57-203.14zm-108.78 142.099c0 8.28-6.71 15-15 15h-48.26v48.27c0 8.28-6.72 15-15 15h-59.87c-8.28 0-15-6.72-15-15v-48.27h-48.27c-8.29 0-15-6.72-15-15v-59.87c0-8.28 6.71-15 15-15h48.27v-48.27c0-8.28 6.72-15 15-15h59.87c8.28 0 15 6.72 15 15v48.27h48.26c8.29 0 15 6.72 15 15z"  fill="#FAFAFA"/>
</svg>