<svg id="Capa_1" enable-background="new 0 0 512 512" height="512" viewBox="0 0 512 512" width="512" xmlns="http://www.w3.org/2000/svg">
    <g>
        <path d="m143.07 190.573c11.321-19.855 27.727-36.434 47.445-47.966l-13.676-109.68c-28.711 10.226-54.82 25.837-77.129 45.623l-20.523-20.522-21.159 21.159 20.597 20.597c-19.56 22.368-34.946 48.481-44.973 77.145z"  fill="#FAFAFA"/>
        <path d="m368.93 190.573 109.418-13.644c-10.026-28.664-25.413-54.778-44.973-77.145l20.596-20.597-21.159-21.159-20.521 20.522c-22.309-19.787-48.419-35.397-77.129-45.623l-13.676 109.68c19.717 11.531 36.123 28.111 47.444 47.966z"  fill="#FAFAFA"/>
        <path d="m367.651 321.267c-11.316 18.975-27.331 34.821-46.44 45.933l13.669 109.62c28.241-10.037 54.006-25.312 76.122-44.659l21.81 21.811 21.159-21.159-21.736-21.736c19.572-22.059 35.068-47.82 45.304-76.107z"  fill="#FAFAFA"/>
        <path d="m144.349 321.267-109.889 13.703c10.235 28.287 25.732 54.048 45.304 76.107l-21.736 21.736 21.159 21.159 21.81-21.811c22.117 19.347 47.881 34.622 76.122 44.659l13.67-109.62c-19.109-11.112-35.124-26.959-46.44-45.933z"  fill="#FAFAFA"/>
        <path d="m341.626 224.133v63.734l170.374 21.245v-106.224z"  fill="#FAFAFA"/>
        <path d="m170.374 224.133-170.374-21.245v106.224l170.374-21.245z"  fill="#FAFAFA"/>
        <path d="m224.133 170.374h63.734l21.245-170.374h-106.224z"  fill="#FAFAFA" />
        <path d="m224.133 341.626-21.245 170.374h106.224l-21.245-170.374z"  fill="#FAFAFA" />
    </g>
</svg>