<?xml version='1.0' encoding='iso-8859-1'?>
<svg version="1.1" xmlns="http://www.w3.org/2000/svg" viewBox="0 0 236.943 236.943" xmlns:xlink="http://www.w3.org/1999/xlink" enable-background="new 0 0 236.943 236.943">
  <g>
    <path d="m234.995,92.878c3.44-4.291 2.202-9.754-2.754-12.141l-36.621-17.637c-4.956-2.386-10.011-8.726-11.235-14.088l-9.045-39.631c-1.225-5.362-6.28-7.797-11.236-5.411l-36.62,17.629c-4.956,2.385-13.064,2.383-18.02-0.004l-36.623-17.649c-4.955-2.388-10.011,0.045-11.235,5.407l-9.044,39.593c-1.225,5.361-6.283,11.693-11.24,14.075l-36.612,17.58c-4.957,2.383-6.203,7.83-2.769,12.125l25.321,31.633c3.435,4.295 5.239,12.136 4.011,17.496l-9.024,39.245c-1.229,5.36 2.266,9.503 7.766,9.503h40.646c5.5,0 12.806,3.763 16.234,8.063l25.343,32.024c3.429,4.3 9.04,4.3 12.469,0l25.344-32.024c3.43-4.3 10.735-8.063 16.235-8.063h40.649c5.5,0 8.994-4.143 7.765-9.503l-9.027-39.123c-1.229-5.36 0.58-13.258 4.021-17.548l25.301-31.551zm-116.522,77.058c-31.751,0-57.583-25.832-57.583-57.583s25.832-57.583 57.583-57.583 57.583,25.832 57.583,57.583-25.832,57.583-57.583,57.583z" fill="#FAFAFA"/>
    <polygon points="130.207,96.277 118.468,73.216 106.724,96.277 81.179,100.318 99.484,118.609 95.425,144.164 118.48,132.408    141.521,144.16 137.466,118.606 155.767,100.319  " fill="#FAFAFA"/>
  </g>
</svg>
