<svg id="Capa_1" enable-background="new 0 0 497.883 497.883" height="512" viewBox="0 0 497.883 497.883" width="512" xmlns="http://www.w3.org/2000/svg"><path d="m62.235 385.662c5.027 2.199 9.597 4.465 13.872 6.606 14.222 7.111 24.508 12.262 48.241 12.262 23.748 0 34.035-5.151 48.272-12.277 4.327-2.163 8.978-4.452 14.085-6.676v-105.518h124.47v105.647c4.98 2.18 9.496 4.425 13.736 6.547 14.267 7.126 24.584 12.277 48.393 12.277 23.794 0 34.111-5.151 48.378-12.277 4.298-2.146 8.902-4.416 13.963-6.623v-136.692l62.207.004-62.235-62.235h.029v-124.471h-62.235v62.264l-124.499-124.499-248.912 248.912 62.235.004z"/><path d="m421.684 423.37c-14.267 7.126-24.584 12.277-48.378 12.277-23.809 0-34.126-5.151-48.393-12.277-16.79-8.402-37.712-18.841-76.183-18.841-38.441 0-59.333 10.454-76.107 18.841-14.237 7.126-24.523 12.277-48.272 12.277-23.733 0-34.02-5.151-48.241-12.262-16.79-8.402-37.666-18.856-76.107-18.856v62.235c23.733 0 34.02 5.151 48.241 12.262 16.79 8.402 37.666 18.856 76.107 18.856s59.333-10.454 76.107-18.841c14.237-7.126 24.523-12.277 48.272-12.277 23.794 0 34.111 5.151 48.378 12.277 16.805 8.387 37.712 18.841 76.199 18.841 38.472 0 59.394-10.438 76.183-18.841 14.267-7.126 24.584-12.277 48.393-12.277v-62.235c-38.487 0-59.394 10.453-76.199 18.841z"/></svg>